<svg xmlns="http://www.w3.org/2000/svg" id="b4a0c914-a71c-4751-86f0-8e64f22da272" data-name="Layer 1" viewBox="0 0 949 341"><defs><style>.b9c41091-0db6-4a48-9bf2-12fdffed75da{fill:#1c4d97;}.a7643870-d5fa-4172-9de0-304d329a4752{fill:#ee7510;}.b62b557c-9c7a-42ec-a17f-dee033f58962{fill:#2674bb;}</style></defs><path class="b9c41091-0db6-4a48-9bf2-12fdffed75da" d="M42.37,32.8V92.09h72v37.83h-72v95.71c0,35.94,17.86,51.81,58.55,51.81h13.41v38.28h-13.9c-67,0-100.74-27.55-100.74-83.1V32.8Z"></path><path class="a7643870-d5fa-4172-9de0-304d329a4752" d="M168.66,4.33c14.89,0,25.81,10.75,25.81,24.28,0,14-11.41,24.73-25.81,24.73s-25.8-11.2-25.8-24.73,11.41-24.28,25.8-24.28"></path><rect class="b9c41091-0db6-4a48-9bf2-12fdffed75da" x="147.33" y="92.09" width="42.67" height="223.62"></rect><path class="b9c41091-0db6-4a48-9bf2-12fdffed75da" d="M224.85,186.41c0-63,38.72-98.52,93.8-98.52,29.79,0,55.09,12.15,73,34.54,18.86-22.86,43.67-34.54,73-34.54,55.08,0,93.8,36,93.8,98.52V315.72H516.18V178.93c0-31.74-21.34-52.29-51.61-52.29S413,147.19,413,178.93V315.72H370.78V178.93c0-31.74-21.84-52.29-52.13-52.29S267,147.19,267,178.93V315.72H224.85Z"></path><path class="b62b557c-9c7a-42ec-a17f-dee033f58962" d="M614.38,168.44a1.22,1.22,0,0,1-.77,1.12,23.85,23.85,0,0,1-7,1.2c-6.95,0-13.21-3.52-13.21-13.38l.09-23.85h-4.89a.92.92,0,0,1-.86-.85v-6a.92.92,0,0,1,.86-.86h4.89l-.17-10.2a.92.92,0,0,1,.85-.86H603a.92.92,0,0,1,.86.86l-.08,10.2h9.86a.92.92,0,0,1,.86.86v6a.92.92,0,0,1-.86.85h-10l.09,23.59c0,4.46,1.88,5.83,5.14,5.83a17.21,17.21,0,0,0,4.64-.6.63.63,0,0,1,.85.6Z"></path><path class="b62b557c-9c7a-42ec-a17f-dee033f58962" d="M641.14,132.76c-5,0-9.78,4-11.24,11.41l.35,25a.93.93,0,0,1-.86.86h-8.67a.93.93,0,0,1-.86-.86l.35-29.42-.35-28.91a.92.92,0,0,1,.86-.85h8.67a.92.92,0,0,1,.86.85l-.35,20.93c3-4.29,7.55-6.95,13.9-6.95,9.69,0,15.61,5.84,15.44,18.7l-.09,9.18.26,16.47a.92.92,0,0,1-.86.86h-8.83a.92.92,0,0,1-.86-.86l.25-16.3L649,142.37C648.94,135.68,645.6,132.76,641.14,132.76Z"></path><path class="b62b557c-9c7a-42ec-a17f-dee033f58962" d="M706.4,154.89a.85.85,0,0,1,.77.86c-1.28,8.4-8.49,15.27-20.32,15.27C672.6,171,665,161.49,665,148c0-14,8.14-23.25,21.52-23.25,13.64,0,21.45,9.18,21.7,24.19a.92.92,0,0,1-.85.86h-32c.43,9.44,4.21,13.9,11.67,13.9,5.4,0,8.84-2.58,10.12-8a1,1,0,0,1,1-.86ZM686.59,132c-6.17,0-9.78,3.77-10.89,10.89h21.35C696.71,137.14,693.36,132,686.59,132Z"></path><path class="b62b557c-9c7a-42ec-a17f-dee033f58962" d="M590.79,242.85a.92.92,0,0,1-.85-.86l.34-21.53-.34-20.93a.92.92,0,0,1,.85-.86h8.92a.92.92,0,0,1,.86.86l-.26,20.93.26,21.53a.92.92,0,0,1-.86.86Zm.09-48.81a.92.92,0,0,1-.86-.86v-8.49a.92.92,0,0,1,.86-.86h8.75a.92.92,0,0,1,.85.86v8.49a.92.92,0,0,1-.85.86Z"></path><path class="b62b557c-9c7a-42ec-a17f-dee033f58962" d="M609.06,242.85a.92.92,0,0,1-.86-.86l.26-19.9-.17-22.56a.92.92,0,0,1,.86-.86h8.32a.93.93,0,0,1,.86.86l-.18,5.57a17.25,17.25,0,0,1,14.41-7.46c9.27,0,15.1,6.18,15.1,17.33v9.09l.26,17.93a.92.92,0,0,1-.86.86h-8.84a.92.92,0,0,1-.85-.86l.26-17.93v-8.83c0-6.26-3.35-9.52-8.07-9.52-5.23,0-10,4.37-10.89,13.55v4.8l.17,17.93a.92.92,0,0,1-.86.86Z"></path><path class="b62b557c-9c7a-42ec-a17f-dee033f58962" d="M678,242.16a1.23,1.23,0,0,1-1.12.77H666.18a1.22,1.22,0,0,1-1.12-.77L649.8,199.44a.63.63,0,0,1,.59-.77h9.53a1.19,1.19,0,0,1,1.11.86l10.81,34.82,11.67-34.91a1.22,1.22,0,0,1,1.11-.77h8.06a.63.63,0,0,1,.6.77Z"></path><path class="b62b557c-9c7a-42ec-a17f-dee033f58962" d="M735.05,227.75a.85.85,0,0,1,.77.86c-1.29,8.4-8.49,15.27-20.33,15.27-14.24,0-21.87-9.53-21.87-23,0-14,8.15-23.25,21.53-23.25,13.64,0,21.44,9.18,21.7,24.19a.92.92,0,0,1-.86.86H704c.44,9.44,4.21,13.9,11.67,13.9,5.41,0,8.84-2.58,10.12-8a1,1,0,0,1,1-.86Zm-19.82-22.9c-6.17,0-9.77,3.77-10.89,10.89H725.7C725.36,210,722,204.85,715.23,204.85Z"></path><path class="b62b557c-9c7a-42ec-a17f-dee033f58962" d="M743.53,242.85a.92.92,0,0,1-.86-.86l.26-19.9-.17-22.56a.92.92,0,0,1,.85-.86h8.32a.92.92,0,0,1,.86.86l-.17,5.57A17.25,17.25,0,0,1,767,197.64c9.26,0,15.09,6.18,15.09,17.33v9.09l.26,17.93a.92.92,0,0,1-.86.86h-8.84a.92.92,0,0,1-.85-.86l.25-17.93v-8.83c0-6.26-3.34-9.52-8.06-9.52-5.23,0-10,4.37-10.89,13.55v4.8l.17,17.93a.92.92,0,0,1-.86.86Z"></path><path class="b62b557c-9c7a-42ec-a17f-dee033f58962" d="M813,241.3a1.22,1.22,0,0,1-.77,1.12,23.85,23.85,0,0,1-7,1.2c-6.95,0-13.21-3.52-13.21-13.38l.09-23.85h-4.89a.92.92,0,0,1-.86-.85v-6a.92.92,0,0,1,.86-.86h4.89l-.17-10.2a.92.92,0,0,1,.85-.86h8.75a.92.92,0,0,1,.86.86l-.09,10.2h9.87a.92.92,0,0,1,.86.86v6a.92.92,0,0,1-.86.85h-10l.08,23.59c0,4.46,1.89,5.83,5.15,5.83a17.21,17.21,0,0,0,4.64-.6.63.63,0,0,1,.85.6Z"></path><path class="b62b557c-9c7a-42ec-a17f-dee033f58962" d="M837.44,243.88c-13.89,0-21.87-9-21.87-23s8-23.25,21.87-23.25,21.7,9,21.7,23S851.34,243.88,837.44,243.88Zm0-7.29c7.46,0,11.07-5.15,11.07-15.7s-3.69-16-11.15-16c-7.63.09-11.24,5.58-11.24,16S829.9,236.59,837.44,236.59Z"></path><path class="b62b557c-9c7a-42ec-a17f-dee033f58962" d="M865.91,242.85a.92.92,0,0,1-.85-.86l.34-21.45-.34-21a.92.92,0,0,1,.85-.86h8.67a.92.92,0,0,1,.85.86l-.34,6.95c3.26-5.4,9.09-8.15,15.44-8.15a19.09,19.09,0,0,1,2.14.17,1.1,1.1,0,0,1,.86,1v6.35a.84.84,0,0,1-.86.77,15.42,15.42,0,0,0-2-.08c-8.32,0-14.83,4.8-15.35,14.75l.17,20.67a.92.92,0,0,1-.86.86Z"></path><path class="b62b557c-9c7a-42ec-a17f-dee033f58962" d="M919.25,256.66a1.2,1.2,0,0,1-1.11.77H910a.63.63,0,0,1-.6-.77L914,243.1l-17.41-43.66a.55.55,0,0,1,.51-.77h10a1.23,1.23,0,0,1,1.12.77l11.06,30.37,9.18-30.28a1.2,1.2,0,0,1,1.12-.86h8.83a.63.63,0,0,1,.6.77Z"></path><path class="b62b557c-9c7a-42ec-a17f-dee033f58962" d="M600.06,299.24l.25,15.61a.92.92,0,0,1-.86.86h-9a.92.92,0,0,1-.86-.86l.35-15.61-.18-26.85a.92.92,0,0,1,.86-.86h8.32a.92.92,0,0,1,.86.86l-.17,5.57c2.92-4.46,7-7.46,13.12-7.46,6.27,0,10.72,2.75,12.7,8.75,3.51-6.34,8-8.75,13.64-8.75,8.83,0,14,5.41,14,17.33v11.41l.17,15.61a.92.92,0,0,1-.86.86h-8.83a.92.92,0,0,1-.86-.86l.26-15.61V288.09c0-6.69-2.83-9.52-7.13-9.52-3.94,0-7.89,4.11-9.17,11.58v9.09l.25,15.61a.92.92,0,0,1-.85.86h-8.92a.92.92,0,0,1-.86-.86l.34-15.61V288.09c0-6.69-2.74-9.52-7.12-9.52s-8.57,4.8-9.43,13.55Z"></path><path class="b62b557c-9c7a-42ec-a17f-dee033f58962" d="M691.74,315.71a.92.92,0,0,1-.86-.86l.17-5.23a15.77,15.77,0,0,1-13.55,6.95c-12.27,0-18.7-9.95-18.7-22.82s7-23.08,18.87-23.08c5.83,0,10.38,2.24,13.38,6.52l-.26-4.8a.92.92,0,0,1,.86-.86h8.75a.92.92,0,0,1,.86.86l-.26,21.1.26,21.36a.92.92,0,0,1-.86.86Zm-11.49-6.43c6.94,0,11-5.15,11.06-15.36s-3.86-15.87-10.81-16c-7.54-.08-11.15,5.67-11.15,15.1C669.35,303.35,673,309.28,680.25,309.28Z"></path><path class="b62b557c-9c7a-42ec-a17f-dee033f58962" d="M709.4,315.71a.92.92,0,0,1-.86-.86l.25-19.9-.17-22.56a.92.92,0,0,1,.86-.86h8.32a.92.92,0,0,1,.86.86l-.17,5.57a17.23,17.23,0,0,1,14.41-7.46c9.26,0,15.09,6.18,15.09,17.33v9.09l.26,17.93a.92.92,0,0,1-.85.86h-8.84a.92.92,0,0,1-.86-.86l.26-17.93v-8.83c0-6.26-3.34-9.52-8.06-9.52-5.23,0-10,4.37-10.9,13.55v4.8l.18,17.93a.93.93,0,0,1-.86.86Z"></path><path class="b62b557c-9c7a-42ec-a17f-dee033f58962" d="M786.76,315.71a.92.92,0,0,1-.86-.86l.17-5.23a15.77,15.77,0,0,1-13.55,6.95c-12.27,0-18.7-9.95-18.7-22.82s7-23.08,18.87-23.08c5.83,0,10.38,2.24,13.38,6.52l-.26-4.8a.92.92,0,0,1,.86-.86h8.75a.92.92,0,0,1,.86.86l-.26,21.1.26,21.36a.92.92,0,0,1-.86.86Zm-11.5-6.43c7,0,11-5.15,11.07-15.36s-3.86-15.87-10.81-16c-7.55-.08-11.15,5.67-11.15,15.1C764.37,303.35,768.06,309.28,775.26,309.28Z"></path><path class="b62b557c-9c7a-42ec-a17f-dee033f58962" d="M823.8,332.69c-10.81.17-19.21-4.37-20-13.9a.78.78,0,0,1,.77-.85h8.49a.93.93,0,0,1,.94.85c.69,4.38,4.38,6.7,10,6.7,6.51,0,10.81-3.61,10.81-11.93V308.5a15.17,15.17,0,0,1-13.21,6.95c-12.7,0-19.39-9.52-19.39-22.05s7-22.55,19-22.55c5.83,0,10.29,2.23,13.29,6.43l-.26-4.89a.93.93,0,0,1,.86-.86h8.67a.93.93,0,0,1,.86.86L844.39,292l.17,21.7C844.65,325.57,837.35,332.69,823.8,332.69Zm.09-24.36c6.77,0,10.81-4.8,10.89-14.58.09-10-3.86-15.61-10.81-15.7-7.46-.17-11.23,5.49-11.23,14.93C812.74,303,816.6,308.42,823.89,308.33Z"></path><path class="b62b557c-9c7a-42ec-a17f-dee033f58962" d="M892,300.61a.85.85,0,0,1,.78.86c-1.29,8.4-8.5,15.27-20.33,15.27-14.24,0-21.88-9.53-21.88-23,0-14,8.15-23.25,21.53-23.25,13.64,0,21.45,9.18,21.7,24.19a.92.92,0,0,1-.85.86h-32c.43,9.44,4.2,13.9,11.67,13.9,5.4,0,8.83-2.58,10.12-8a1,1,0,0,1,1-.86Zm-19.81-22.9c-6.18,0-9.78,3.77-10.9,10.89h21.36C882.29,282.86,879,277.71,872.17,277.71Z"></path><path class="b62b557c-9c7a-42ec-a17f-dee033f58962" d="M900.38,315.71a.92.92,0,0,1-.86-.86l.35-21.45-.35-21a.92.92,0,0,1,.86-.86H909a.92.92,0,0,1,.86.86l-.35,6.95c3.27-5.4,9.1-8.15,15.44-8.15a19.46,19.46,0,0,1,2.15.17,1.11,1.11,0,0,1,.86,1v6.35a.85.85,0,0,1-.86.77,15.58,15.58,0,0,0-2-.08c-8.32,0-14.85,4.8-15.36,14.75l.18,20.67a.93.93,0,0,1-.86.86Z"></path></svg>